# xmcd CD database file
#
# Track frame offsets:
#	187
#	12142
#	26774
#	39494
#	49969
#	63459
#	80582
#	98589
#	110129
#	123122
#	131387
#	157989
#
# Disc length: 2387 seconds
#
# Revision: 2
# Processed by: cddbd v1.5.1PL0 Copyright (c) Steve Scherf et al.
# Submitted via: CDex 1.51
#
DISCID=9409510c
DTITLE=DEATH FROM ABOVE 1979 - YOU'RE A WOMAN, I'M A MACHINE
DYEAR=2004
DGENRE=Rock
TTITLE0=TURN IT OUT
TTITLE1=ROMANTIC RIGHTS
TTITLE2=GOING STEADY
TTITLE3=GO HOME, GET DOWN
TTITLE4=BLOOD ON OUR HANDS
TTITLE5=BLACK HISTORY MONTH
TTITLE6=LITTLE GIRL
TTITLE7=COLD WAR
TTITLE8=YOU'RE A WOMAN, I'M A MACHINE
TTITLE9=PULL OUT
TTITLE10=SEXY RESULTS
TTITLE11=ROMANTIC RIGHTS(THE PHONES LOVERS REMIX) BONUS TRACK FOR JAPAN
EXTD=YEAR: 2004
EXTT0=
EXTT1=
EXTT2=
EXTT3=
EXTT4=
EXTT5=
EXTT6=
EXTT7=
EXTT8=
EXTT9=
EXTT10=
EXTT11=
PLAYORDER=
